<svg width="682" height="682" viewBox="0 0 682 682" fill="none" xmlns="http://www.w3.org/2000/svg">
<path d="M341 25.575C341 11.4503 352.466 -0.099744 366.551 0.958617C370.915 1.28649 375.271 1.69833 379.619 2.19389C393.653 3.79354 402.751 17.2875 400.105 31.162V31.162C397.458 45.0365 384.066 54.0193 370.012 52.6056C368.856 52.4893 367.699 52.38 366.542 52.2776C352.472 51.0329 341 39.6997 341 25.575V25.575Z" fill="#202543"/>
<path d="M448.882 44.5974C453.713 31.3246 468.438 24.3927 481.311 30.2046C485.299 32.0051 489.252 33.8822 493.168 35.8348C505.809 42.1379 509.744 57.93 502.511 70.0626V70.0626C495.279 82.1951 479.621 86.0557 466.899 79.9205C465.852 79.4159 464.803 78.9175 463.75 78.4255C450.955 72.4437 444.051 57.8703 448.882 44.5974V44.5974Z" fill="#202543"/>
<path d="M543.751 99.3705C552.831 88.5504 569.038 87.0728 579.148 96.9372C582.28 99.9931 585.352 103.109 588.364 106.283C598.087 116.529 596.383 132.715 585.437 141.642V141.642C574.491 150.569 558.458 148.842 548.601 138.726C547.79 137.893 546.974 137.066 546.153 136.244C536.175 126.247 534.672 110.191 543.751 99.3705V99.3705Z" fill="#202543"/>
<path d="M614.166 183.288C626.398 176.225 642.134 180.38 648.26 193.107C650.158 197.05 651.98 201.029 653.724 205.042C659.356 217.995 652.219 232.622 638.88 237.267V237.267C625.541 241.912 611.065 234.806 605.263 221.928C604.786 220.869 604.302 219.812 603.812 218.759C597.855 205.952 601.934 190.35 614.166 183.288V183.288Z" fill="#202543"/>
<path d="M651.633 286.227C665.543 283.774 678.909 293.061 680.312 307.115C680.747 311.47 681.098 315.832 681.365 320.199C682.227 334.298 670.518 345.601 656.394 345.404V345.404C642.271 345.207 631.099 333.578 630.051 319.492C629.965 318.333 629.872 317.175 629.771 316.018C628.554 301.946 637.723 288.68 651.633 286.227V286.227Z" fill="#202543"/>
<path d="M651.633 395.773C665.543 398.226 674.927 411.523 671.438 425.21C670.358 429.451 669.196 433.67 667.953 437.865C663.94 451.408 649.072 458.025 635.867 453.01V453.01C622.663 447.994 616.143 433.245 619.975 419.65C620.29 418.532 620.599 417.412 620.901 416.29C624.57 402.65 637.723 393.32 651.633 395.773V395.773Z" fill="#202543"/>
<path d="M614.166 498.713C626.398 505.775 630.668 521.48 622.709 533.149C620.243 536.764 617.708 540.331 615.105 543.848C606.703 555.202 590.467 556.335 579.775 547.105V547.105C569.083 537.876 568 521.786 576.251 510.322C576.93 509.379 577.603 508.432 578.27 507.481C586.383 495.919 601.934 491.65 614.166 498.713V498.713Z" fill="#202543"/>
</svg>
