<svg width="682" height="682" viewBox="0 0 682 682" fill="none" xmlns="http://www.w3.org/2000/svg">
<g opacity="0.8">
<path d="M543.751 582.63C552.83 593.45 551.471 609.668 540.001 617.911C536.448 620.464 532.846 622.949 529.197 625.364C517.418 633.16 501.774 628.671 494.883 616.341C487.992 604.012 492.478 588.522 504.152 580.571C505.112 579.917 506.069 579.258 507.021 578.592C518.599 570.502 534.672 571.809 543.751 582.63Z" fill="#F5F0F0"/>
<path d="M448.882 637.403C453.713 650.675 446.888 665.451 433.291 669.273C429.078 670.458 424.844 671.561 420.589 672.582C406.854 675.879 393.689 666.31 391.431 652.367C389.172 638.424 398.685 625.403 412.375 621.925C413.501 621.639 414.625 621.346 415.747 621.046C429.394 617.404 444.051 624.13 448.882 637.403Z" fill="#F5F0F0"/>
<path d="M341 656.425C341 670.55 329.534 682.1 315.449 681.041C311.085 680.714 306.729 680.302 302.381 679.806C288.347 678.206 279.249 664.712 281.895 650.838C284.542 636.963 297.934 627.981 311.988 629.394C313.144 629.511 314.301 629.62 315.458 629.722C329.528 630.967 341 642.3 341 656.425Z" fill="#F5F0F0"/>
<path d="M233.118 637.403C228.287 650.675 213.562 657.607 200.689 651.795C196.701 649.995 192.747 648.118 188.832 646.165C176.191 639.862 172.256 624.07 179.489 611.937C186.721 599.805 202.378 595.944 215.101 602.079C216.148 602.584 217.197 603.082 218.25 603.575C231.045 609.556 237.949 624.13 233.118 637.403Z" fill="#F5F0F0"/>
<path d="M138.249 582.63C129.17 593.45 112.962 594.927 102.852 585.063C99.7205 582.007 96.6477 578.891 93.6358 575.717C83.9135 565.471 85.6173 549.285 96.5631 540.358C107.509 531.431 123.542 533.158 133.399 543.275C134.21 544.107 135.026 544.934 135.847 545.756C145.825 555.754 147.328 571.809 138.249 582.63Z" fill="#F5F0F0"/>
<path d="M67.8339 498.713C55.6016 505.775 39.8659 501.62 33.74 488.893C31.8422 484.95 30.0205 480.971 28.2758 476.958C22.6443 464.005 29.7811 449.378 43.1201 444.733C56.4591 440.088 70.9347 447.195 76.7372 460.072C77.2145 461.132 77.6981 462.188 78.1881 463.241C84.1451 476.048 80.0663 491.65 67.8339 498.713Z" fill="#F5F0F0"/>
<path d="M30.367 395.773C16.4569 398.226 3.09127 388.939 1.68772 374.885C1.2529 370.531 0.901935 366.169 0.635014 361.801C-0.226587 347.702 11.4824 336.399 25.6057 336.596C39.729 336.793 50.901 348.422 51.9491 362.508C52.0353 363.667 52.1285 364.825 52.2286 365.982C53.446 380.054 44.2771 393.32 30.367 395.773Z" fill="#F5F0F0"/>
<path d="M30.367 286.227C16.4569 283.774 7.0734 270.477 10.5615 256.79C11.6421 252.549 12.8042 248.33 14.0472 244.135C18.0595 230.592 32.9285 223.975 46.1326 228.99C59.3367 234.006 65.8575 248.755 62.0248 262.35C61.7095 263.468 61.401 264.588 61.0992 265.71C57.4303 279.35 44.2771 288.68 30.367 286.227Z" fill="#F5F0F0"/>
<path d="M67.8339 183.288C55.6016 176.225 51.332 160.52 59.2911 148.851C61.7567 145.236 64.2918 141.669 66.8948 138.152C75.297 126.798 91.5325 125.665 102.225 134.895C112.917 144.124 114 160.214 105.749 171.678C105.07 172.621 104.397 173.568 103.73 174.519C95.6172 186.081 80.0663 190.35 67.8339 183.288Z" fill="#F5F0F0"/>
<path d="M138.249 99.3704C129.17 88.5503 130.529 72.3321 141.999 64.0892C145.552 61.5356 149.154 59.0506 152.803 56.6357C164.582 48.8403 180.226 53.3288 187.117 65.6585C194.008 77.9883 189.523 93.4781 177.848 101.429C176.888 102.083 175.931 102.742 174.979 103.408C163.401 111.498 147.328 110.191 138.249 99.3704Z" fill="#F5F0F0"/>
<path d="M233.118 44.5974C228.287 31.3246 235.112 16.5494 248.709 12.7266C252.922 11.5423 257.157 10.4392 261.411 9.41794C275.146 6.12128 288.311 15.6895 290.57 29.6325C292.828 43.5755 283.315 56.5971 269.625 60.0753C268.499 60.3614 267.375 60.6542 266.253 60.9538C252.606 64.5963 237.949 57.8703 233.118 44.5974Z" fill="#F5F0F0"/>
</g>
</svg>
