<svg width="860" height="860" viewBox="0 0 860 860" fill="none" xmlns="http://www.w3.org/2000/svg">
<path d="M430 0C667.482 0 860 192.518 860 430C860 667.482 667.482 860 430 860C192.518 860 0 667.482 0 430C0 192.518 192.518 0 430 0ZM400.988 718.395C386.935 716.981 373.542 725.963 370.896 739.838C368.249 753.712 377.347 767.206 391.381 768.806C395.728 769.301 400.086 769.713 404.449 770.041C418.534 771.099 430 759.549 430 745.425C430 731.3 418.528 719.967 404.458 718.723C403.301 718.62 402.144 718.511 400.988 718.395ZM537.882 726.402C533.051 713.13 518.394 706.403 504.747 710.046C503.625 710.345 502.501 710.639 501.375 710.925C487.685 714.403 478.173 727.424 480.431 741.367C482.689 755.31 495.854 764.879 509.589 761.582C513.844 760.561 518.079 759.458 522.291 758.273C535.888 754.451 542.713 739.675 537.882 726.402ZM304.102 691.079C291.379 684.944 275.722 688.805 268.489 700.938C261.257 713.07 265.191 728.862 277.831 735.165C281.747 737.118 285.7 738.995 289.688 740.796C302.562 746.608 317.287 739.675 322.118 726.402C326.949 713.13 320.045 698.556 307.25 692.574C306.198 692.082 305.148 691.584 304.102 691.079ZM632.751 671.63C623.672 660.81 607.6 659.502 596.021 667.592C595.069 668.257 594.113 668.917 593.152 669.571C581.478 677.522 576.992 693.012 583.883 705.342C590.774 717.671 606.418 722.159 618.196 714.364C621.845 711.949 625.448 709.465 629.001 706.911C640.471 698.668 641.83 682.45 632.751 671.63ZM222.399 632.274C212.542 622.158 196.509 620.431 185.563 629.357C174.618 638.285 172.913 654.471 182.636 664.717C185.648 667.891 188.721 671.007 191.853 674.062C201.962 683.927 218.17 682.45 227.249 671.63C236.328 660.81 234.825 644.753 224.847 634.756C224.026 633.934 223.21 633.107 222.399 632.274ZM165.737 549.072C159.935 536.195 145.459 529.087 132.12 533.732C118.781 538.378 111.644 553.005 117.275 565.958C119.02 569.971 120.842 573.95 122.74 577.893C128.866 590.62 144.602 594.775 156.834 587.713C169.066 580.651 173.145 565.048 167.188 552.241C166.699 551.188 166.215 550.131 165.737 549.072ZM114.605 425.596C100.482 425.399 88.7732 436.703 89.6348 450.801C89.9017 455.168 90.2527 459.531 90.6875 463.885C92.0911 477.94 105.457 487.226 119.367 484.773C133.277 482.321 142.446 469.054 141.229 454.982C141.128 453.825 141.035 452.666 140.949 451.508C139.901 437.422 128.729 425.793 114.605 425.596ZM135.133 317.99C121.929 312.974 107.059 319.592 103.047 333.135C101.804 337.33 100.642 341.549 99.5615 345.789C96.0734 359.476 105.457 372.774 119.367 375.227C133.277 377.679 146.431 368.35 150.1 354.71C150.401 353.588 150.709 352.468 151.024 351.35C154.857 337.755 148.337 323.006 135.133 317.99ZM191.225 223.895C180.532 214.665 164.297 215.799 155.895 227.152C153.292 230.67 150.757 234.237 148.291 237.852C140.332 249.52 144.602 265.225 156.834 272.287C169.066 279.349 184.617 275.081 192.729 263.519C193.397 262.568 194.07 261.621 194.749 260.678C203 249.214 201.917 233.124 191.225 223.895ZM276.117 154.658C269.226 142.329 253.582 137.841 241.804 145.636C238.155 148.051 234.552 150.535 230.999 153.089C219.529 161.332 218.17 177.55 227.249 188.37C236.328 199.19 252.401 200.499 263.979 192.408C264.932 191.743 265.888 191.083 266.848 190.429C278.522 182.478 283.008 166.988 276.117 154.658ZM379.569 118.633C377.311 104.69 364.146 95.1213 350.411 98.418C346.156 99.4392 341.921 100.542 337.709 101.727C324.112 105.549 317.287 120.325 322.118 133.598C326.949 146.87 341.606 153.597 355.253 149.954C356.375 149.655 357.499 149.361 358.625 149.075C372.315 145.597 381.827 132.576 379.569 118.633Z" fill="#5F136B"/>
</svg>
