<svg id="visual" viewBox="0 0 540 960" width="540" height="960" xmlns="http://www.w3.org/2000/svg" xmlns:xlink="http://www.w3.org/1999/xlink" version="1.1"><path d="M0 20L45 23.2C90 26.3 180 32.7 270 45.5C360 58.3 450 77.7 495 87.3L540 97L540 0L495 0C450 0 360 0 270 0C180 0 90 0 45 0L0 0Z" fill="#fff4ea"></path><path d="M0 155L45 142.2C90 129.3 180 103.7 270 103.7C360 103.7 450 129.3 495 142.2L540 155L540 95L495 85.3C450 75.7 360 56.3 270 43.5C180 30.7 90 24.3 45 21.2L0 18Z" fill="#feebdd"></path><path d="M0 279L45 299.8C90 320.7 180 362.3 270 365.7C360 369 450 334 495 316.5L540 299L540 153L495 140.2C450 127.3 360 101.7 270 101.7C180 101.7 90 127.3 45 140.2L0 153Z" fill="#fee3d1"></path><path d="M0 404L45 424.8C90 445.7 180 487.3 270 511.3C360 535.3 450 541.7 495 544.8L540 548L540 297L495 314.5C450 332 360 367 270 363.7C180 360.3 90 318.7 45 297.8L0 277Z" fill="#fed9c5"></path><path d="M0 481L45 503.3C90 525.7 180 570.3 270 588C360 605.7 450 596.3 495 591.7L540 587L540 546L495 542.8C450 539.7 360 533.3 270 509.3C180 485.3 90 443.7 45 422.8L0 402Z" fill="#ffd0bb"></path><path d="M0 615L45 619.8C90 624.7 180 634.3 270 631.2C360 628 450 612 495 604L540 596L540 585L495 589.7C450 594.3 360 603.7 270 586C180 568.3 90 523.7 45 501.3L0 479Z" fill="#ffc6b2"></path><path d="M0 663L45 663C90 663 180 663 270 664.7C360 666.3 450 669.7 495 671.3L540 673L540 594L495 602C450 610 360 626 270 629.2C180 632.3 90 622.7 45 617.8L0 613Z" fill="#ffbcaa"></path><path d="M0 759L45 759C90 759 180 759 270 751C360 743 450 727 495 719L540 711L540 671L495 669.3C450 667.7 360 664.3 270 662.7C180 661 90 661 45 661L0 661Z" fill="#ffb1a4"></path><path d="M0 836L45 836C90 836 180 836 270 826.5C360 817 450 798 495 788.5L540 779L540 709L495 717C450 725 360 741 270 749C180 757 90 757 45 757L0 757Z" fill="#ffa79f"></path><path d="M0 961L45 961C90 961 180 961 270 961C360 961 450 961 495 961L540 961L540 777L495 786.5C450 796 360 815 270 824.5C180 834 90 834 45 834L0 834Z" fill="#ff9c9c"></path></svg>